<?xml version="1.0" encoding="UTF-8"?>
<svg version="1.1" xmlns="http://www.w3.org/2000/svg" width="32" height="32">
<path d="M0 0 C0.71027344 0.08378906 1.42054688 0.16757812 2.15234375 0.25390625 C3.53099609 0.40666016 3.53099609 0.40666016 4.9375 0.5625 C5.85402344 0.66691406 6.77054687 0.77132813 7.71484375 0.87890625 C8.84599609 0.93884766 8.84599609 0.93884766 10 1 C10.33 0.67 10.66 0.34 11 0 C13.69654854 -0.07319621 16.36691458 -0.09242537 19.0625 -0.0625 C19.82111328 -0.05798828 20.57972656 -0.05347656 21.36132812 -0.04882812 C23.24091871 -0.0370068 25.12046899 -0.01907078 27 0 C27.335939 1.4577353 27.66866624 2.91621106 28 4.375 C28.185625 5.18710938 28.37125 5.99921875 28.5625 6.8359375 C29 9 29 9 29 11 C29.31478446 12.33783393 29.64587656 13.67203709 30 15 C28.68 15 27.36 15 26 15 C26.66 16.98 27.32 18.96 28 21 C24 21 24 21 22 20 C22.79299706 22.17038477 22.79299706 22.17038477 24.84765625 22.6328125 C25.94400391 22.87644531 25.94400391 22.87644531 27.0625 23.125 C27.79597656 23.29257812 28.52945312 23.46015625 29.28515625 23.6328125 C29.85105469 23.75398438 30.41695312 23.87515625 31 24 C31.125 26.375 31.125 26.375 31 29 C28.17360061 31.82639939 25.50392531 31.92896645 21.59643555 32.11352539 C20.784729 32.10828857 19.97302246 32.10305176 19.13671875 32.09765625 C17.80737305 32.09282227 17.80737305 32.09282227 16.45117188 32.08789062 C15.53916016 32.07951172 14.62714844 32.07113281 13.6875 32.0625 C12.75615234 32.05798828 11.82480469 32.05347656 10.86523438 32.04882812 C8.57675627 32.03709234 6.28841192 32.02067363 4 32 C4 28.66666667 4 25.33333333 4 22 C2.68 22 1.36 22 0 22 C0.020625 21.195625 0.04125 20.39125 0.0625 19.5625 C0.29633621 17.06645115 0.29633621 17.06645115 -1 16 C-0.77415365 13.96738281 -0.54415941 11.93458019 -0.25390625 9.91015625 C0.04392179 7.99073261 0.04392179 7.99073261 0 6 C0 4 0 2 0 0 Z " fill="#6E4F3B" transform="translate(1,0)"/>
<path d="M0 0 C2 0 2 0 4.125 1.375 C6.96841605 5.35578248 6.32581856 9.25752987 6 14 C5.01 14 4.02 14 3 14 C3 14.66 3 15.32 3 16 C5.31 16 7.62 16 10 16 C10 15.01 10 14.02 10 13 C10.66 13 11.32 13 12 13 C12 13.99 12 14.98 12 16 C14.64 16 17.28 16 20 16 C20 15.34 20 14.68 20 14 C19.34 14 18.68 14 18 14 C18.75 9.25 18.75 9.25 21 7 C22.9453125 7.2421875 22.9453125 7.2421875 25.125 7.875 C25.84945313 8.07867187 26.57390625 8.28234375 27.3203125 8.4921875 C27.87460937 8.65976562 28.42890625 8.82734375 29 9 C29.125 11.375 29.125 11.375 29 14 C26.17360061 16.82639939 23.50392531 16.92896645 19.59643555 17.11352539 C18.784729 17.10828857 17.97302246 17.10305176 17.13671875 17.09765625 C15.80737305 17.09282227 15.80737305 17.09282227 14.45117188 17.08789062 C13.53916016 17.07951172 12.62714844 17.07113281 11.6875 17.0625 C10.75615234 17.05798828 9.82480469 17.05347656 8.86523438 17.04882812 C6.57675627 17.03709234 4.28841192 17.02067363 2 17 C2 13.66666667 2 10.33333333 2 7 C0.68 7 -0.64 7 -2 7 C-2.125 4.625 -2.125 4.625 -2 2 C-1.34 1.34 -0.68 0.68 0 0 Z " fill="#2E463E" transform="translate(3,15)"/>
<path d="M0 0 C1.42543615 4.27630845 0.95595724 7.6981924 0 12 C-0.66 11.67 -1.32 11.34 -2 11 C-1.67 10.34 -1.34 9.68 -1 9 C-1.99 9 -2.98 9 -4 9 C-4.45375 9.969375 -4.9075 10.93875 -5.375 11.9375 C-7 15 -7 15 -9 16 C-15.53333333 16.23333333 -15.53333333 16.23333333 -18 15 C-18.77811718 11.18015204 -19.24386556 8.73159669 -18 5 C-15.525 5.99 -15.525 5.99 -13 7 C-12.34 6.34 -11.68 5.68 -11 5 C-8.34462628 4.43479997 -5.70855287 4.26211802 -3 4 C-2.67 3.01 -2.34 2.02 -2 1 C-1.34 0.67 -0.68 0.34 0 0 Z " fill="#94775E" transform="translate(24,3)"/>
<path d="M0 0 C0 3.33333333 0 6.66666667 0 10 C0.66 10 1.32 10 2 10 C2 10.66 2 11.32 2 12 C-0.64 12 -3.28 12 -6 12 C-6 11.01 -6 10.02 -6 9 C-6.66 9 -7.32 9 -8 9 C-8 9.99 -8 10.98 -8 12 C-10.31 12 -12.62 12 -15 12 C-15 11.34 -15 10.68 -15 10 C-14.34 9.67 -13.68 9.34 -13 9 C-13.020625 7.88625 -13.04125 6.7725 -13.0625 5.625 C-13 2 -13 2 -12 0 C-7.79290296 -1.73290038 -3.88461998 -2.91346498 0 0 Z " fill="#945344" transform="translate(21,19)"/>
<path d="M0 0 C1.32 0 2.64 0 4 0 C4.335939 1.4577353 4.66866624 2.91621106 5 4.375 C5.185625 5.18710938 5.37125 5.99921875 5.5625 6.8359375 C6 9 6 9 6 11 C6.31478446 12.33783393 6.64587656 13.67203709 7 15 C5.68 15 4.36 15 3 15 C3.66 16.98 4.32 18.96 5 21 C1 21 1 21 -1 20 C-1.33 21.98 -1.66 23.96 -2 26 C-2.33 26 -2.66 26 -3 26 C-3.68473395 23.67190457 -4.34853151 21.33762223 -5 19 C-5.2475 18.113125 -5.495 17.22625 -5.75 16.3125 C-6.0474465 13.56111988 -5.454314 12.30979283 -4 10 C-4 10.66 -4 11.32 -4 12 C-3.01 12 -2.02 12 -1 12 C-0.67 12.66 -0.34 13.32 0 14 C0.33 12.68 0.66 11.36 1 10 C0.01 9.67 -0.98 9.34 -2 9 C-1.34 9 -0.68 9 0 9 C0.144375 8.236875 0.28875 7.47375 0.4375 6.6875 C1 4 1 4 2 1 C1.34 0.67 0.68 0.34 0 0 Z " fill="#42513B" transform="translate(24,0)"/>
<path d="M0 0 C1.42543615 4.27630845 0.95595724 7.6981924 0 12 C-0.66 11.67 -1.32 11.34 -2 11 C-1.67 10.34 -1.34 9.68 -1 9 C-1.99 9 -2.98 9 -4 9 C-5.70532323 10.94009522 -5.70532323 10.94009522 -7 13 C-7 11.02 -7 9.04 -7 7 C-7.66 7 -8.32 7 -9 7 C-9 8.65 -9 10.3 -9 12 C-9.66 12 -10.32 12 -11 12 C-11.66 10.35 -12.32 8.7 -13 7 C-9.99382731 3.99382731 -7.17618402 4.40414684 -3 4 C-2.67 3.01 -2.34 2.02 -2 1 C-1.34 0.67 -0.68 0.34 0 0 Z " fill="#AB8060" transform="translate(24,3)"/>
<path d="M0 0 C0 2.33333333 0 4.66666667 0 7 C-1.65 7.33 -3.3 7.66 -5 8 C-5 6.35 -5 4.7 -5 3 C-6.32 2.34 -7.64 1.68 -9 1 C-9.66 3.31 -10.32 5.62 -11 8 C-11.66 8 -12.32 8 -13 8 C-13.125 2.25 -13.125 2.25 -12 0 C-7.79290296 -1.73290038 -3.88461998 -2.91346498 0 0 Z " fill="#98312B" transform="translate(21,19)"/>
<path d="M0 0 C2 0 2 0 4.125 1.375 C6.96841605 5.35578248 6.32581856 9.25752987 6 14 C5.01 14 4.02 14 3 14 C2.67 14.66 2.34 15.32 2 16 C2 13 2 10 2 7 C0.68 7 -0.64 7 -2 7 C-2.125 4.625 -2.125 4.625 -2 2 C-1.34 1.34 -0.68 0.68 0 0 Z " fill="#1B4B42" transform="translate(3,15)"/>
<path d="M0 0 C3.71888239 0.50712033 6.73454239 1.11608215 10 3 C7 4 7 4 4.8125 3.0625 C4.214375 2.711875 3.61625 2.36125 3 2 C3.33 2.99 3.66 3.98 4 5 C4.66 5.33 5.32 5.66 6 6 C5.525625 6.7425 5.05125 7.485 4.5625 8.25 C2.92458215 10.81940349 2.92458215 10.81940349 2.5 13.25 C2.335 13.8275 2.17 14.405 2 15 C1.01 15.33 0.02 15.66 -1 16 C-0.73958333 13.98177083 -0.47916667 11.96354167 -0.21875 9.9453125 C0.0372485 7.99501656 0.0372485 7.99501656 0 6 C0 4 0 2 0 0 Z " fill="#2F3A28" transform="translate(1,0)"/>
<path d="M0 0 C0.33 0.66 0.66 1.32 1 2 C1.99 2 2.98 2 4 2 C4 2.66 4 3.32 4 4 C4.99 4.66 5.98 5.32 7 6 C6.34 6 5.68 6 5 6 C5.33 6.99 5.66 7.98 6 9 C5.34 9 4.68 9 4 9 C3.67 11.31 3.34 13.62 3 16 C2.67 16 2.34 16 2 16 C-1.4375 4.3125 -1.4375 4.3125 0 0 Z " fill="#4F2825" transform="translate(19,10)"/>
<path d="M0 0 C2.49361571 1.20381448 4.68143083 2.45428722 7 4 C7 4.99 7 5.98 7 7 C7.66 7 8.32 7 9 7 C9 5.35 9 3.7 9 2 C9.66 2 10.32 2 11 2 C11.33 4.31 11.66 6.62 12 9 C7.25 10.125 7.25 10.125 5 9 C5 8.01 5 7.02 5 6 C4.34 6 3.68 6 3 6 C2.01 4.02 1.02 2.04 0 0 Z " fill="#D9AE87" transform="translate(6,8)"/>
<path d="M0 0 C1.32 0 2.64 0 4 0 C4.66 2.97 5.32 5.94 6 9 C3.36 9.33 0.72 9.66 -2 10 C-1.34 9.67 -0.68 9.34 0 9 C0.39171753 7.34608154 0.72057545 5.67654729 1 4 C1.33 3.01 1.66 2.02 2 1 C1.34 0.67 0.68 0.34 0 0 Z " fill="#334331" transform="translate(24,0)"/>
<path d="M0 0 C2.4375 0.1875 2.4375 0.1875 3.4375 1.1875 C3.15019945 3.52694736 2.81813221 5.8614143 2.4375 8.1875 C2.1075 8.1875 1.7775 8.1875 1.4375 8.1875 C1.4375 6.2075 1.4375 4.2275 1.4375 2.1875 C0.7775 2.1875 0.1175 2.1875 -0.5625 2.1875 C-0.5625 3.8375 -0.5625 5.4875 -0.5625 7.1875 C-1.2225 7.1875 -1.8825 7.1875 -2.5625 7.1875 C-3.2225 5.5375 -3.8825 3.8875 -4.5625 2.1875 C-2.5625 0.1875 -2.5625 0.1875 0 0 Z " fill="#A3856B" transform="translate(15.5625,7.8125)"/>
<path d="M0 0 C0.99 0.33 1.98 0.66 3 1 C3 3.33333333 3 5.66666667 3 8 C1.35 8.33 -0.3 8.66 -2 9 C-2 7.02 -2 5.04 -2 3 C-1.34 3 -0.68 3 0 3 C0 2.01 0 1.02 0 0 Z " fill="#D7322F" transform="translate(18,18)"/>
<path d="M0 0 C2.0625 0.4375 2.0625 0.4375 4 1 C3.67 2.98 3.34 4.96 3 7 C2.01 7 1.02 7 0 7 C0 6.01 0 5.02 0 4 C-0.66 4 -1.32 4 -2 4 C-1 1 -1 1 0 0 Z " fill="#B44F4B" transform="translate(12,20)"/>
<path d="M0 0 C2 0 2 0 4.125 2 C4.74375 2.66 5.3625 3.32 6 4 C5.67 4.66 5.34 5.32 5 6 C4.34 6 3.68 6 3 6 C3 5.34 3 4.68 3 4 C0.11785113 4.88214887 0.11785113 4.88214887 -2 6 C-1.125 1.125 -1.125 1.125 0 0 Z " fill="#2B2C1F" transform="translate(3,15)"/>
<path d="M0 0 C0.66 0 1.32 0 2 0 C2.33 2.31 2.66 4.62 3 7 C1.35 7.33 -0.3 7.66 -2 8 C-1.34 5.36 -0.68 2.72 0 0 Z " fill="#DFC8AE" transform="translate(15,10)"/>
<path d="M0 0 C0.33 0.66 0.66 1.32 1 2 C1.99 2 2.98 2 4 2 C4 3.32 4 4.64 4 6 C2.35 6.33 0.7 6.66 -1 7 C-0.67 4.69 -0.34 2.38 0 0 Z " fill="#79543E" transform="translate(19,10)"/>
<path d="M0 0 C0.33 0 0.66 0 1 0 C1.309375 0.94875 1.61875 1.8975 1.9375 2.875 C2.87394742 5.86080408 2.87394742 5.86080408 4 8 C2.68 8 1.36 8 0 8 C-0.38063221 5.6739143 -0.71269945 3.33944736 -1 1 C-0.67 0.67 -0.34 0.34 0 0 Z " fill="#C9AF95" transform="translate(6,10)"/>
<path d="M0 0 C0.66 0.66 1.32 1.32 2 2 C1.60467975 4.45098556 0.78698574 6.63904279 0 9 C0 8.34 0 7.68 0 7 C-0.66 7 -1.32 7 -2 7 C-1.125 1.125 -1.125 1.125 0 0 Z " fill="#8E6E54" transform="translate(5,8)"/>
</svg>
